# xmcd
#
# Track frame offsets:
#	150
#	19360
#	34980
#	65925
#	81572
#	85535
#	110497
#	128477
#	150217
#	166385
#	171242
#	186367
#	211140
#	232765
#
# Disc length: 3212 seconds
#
# Revision: 0
# Processed by: cddbd v1.4PL0 Copyright (c) Steve Scherf et al.
# Submitted via: OrangeCD 4.1
#
DISCID=b30c8a0e
DTITLE=Sista Monica - People Love The Blues
DYEAR=2000
DGENRE=Contemporary Blues
TTITLE0=You Got T Pay
TTITLE1=Wou're Only Good For One Thang Baby
TTITLE2=A Chance To Breathe
TTITLE3=Baby Workout!
TTITLE4=Ken "Big Papa" Baker Blows #1
TTITLE5=Honey It's Your Fault
TTITLE6=It's Not What You Say
TTITLE7=It's A Shame, It's A Mystery
TTITLE8=Somebody Gonna Give Up Something Tonight
TTITLE9=Ken "Big Papa" Baker Blows #2
TTITLE10=People Love The Blues
TTITLE11=The Walking Wounded
TTITLE12=Put Your Shoe On The Other Foot
TTITLE13=Walk Around Heaven All Day
EXTD=
EXTT0=
EXTT1=
EXTT2=
EXTT3=
EXTT4=
EXTT5=
EXTT6=
EXTT7=
EXTT8=
EXTT9=
EXTT10=
EXTT11=
EXTT12=
EXTT13=
PLAYORDER=
